<svg xmlns="http://www.w3.org/2000/svg" fill="none" viewBox="0 0 100 100"><g clip-path="url(#a)"><path fill="#EE3D2C" d="M90.92 41.225 50.047 64.537 6.27 39.63l-2.104 1.15v18.083L50.042 84.93 90.92 61.704v9.57L50.046 94.592 6.27 69.68l-2.104 1.154v3.104L50.042 100l45.791-26.063V55.854L93.73 54.7 50.046 79.52 9.079 56.297V46.72l40.967 23.225 45.787-26.063v-17.82l-2.279-1.33-43.508 24.734-38.863-21.984L50.046 5.408l31.929 18.175 2.804-1.596v-2.216L50.046 0 4.166 26.062V28.9l45.876 26.062L90.92 31.65z"/></g><defs><clipPath id="a"><path fill="#fff" d="M0 0h100v100H0z"/></clipPath></defs></svg>