<svg xmlns="http://www.w3.org/2000/svg" x="0px" y="0px" width="100" height="100" viewBox="0,0,256,256">
<g fill="#3d3d3d" fill-rule="nonzero" stroke="none" stroke-width="1" stroke-linecap="butt" stroke-linejoin="miter" stroke-miterlimit="10" stroke-dasharray="" stroke-dashoffset="0" font-family="none" font-weight="none" font-size="none" text-anchor="none" style="mix-blend-mode: normal"><g transform="scale(4,4)"><path d="M52,8h-40c-2.209,0 -4,1.791 -4,4v40c0,2.209 1.791,4 4,4h40c2.209,0 4,-1.791 4,-4v-40c0,-2.209 -1.791,-4 -4,-4zM47,19.5l-1.821,2.197c-0.115,0.114 -0.179,0.268 -0.179,0.428v19.625c0,0.16 0.064,0.314 0.179,0.428l1.821,2.368v0.454h-10v-0.454l2.821,-2.368c0.115,-0.114 0.179,-0.268 0.179,-0.428v-17.871l-8.152,21.121h-0.001h-1.543l-8.304,-20.625v16.108c0,0.22 0.076,0.433 0.215,0.605l2.785,3.458v0.454h-8v-0.454l2.783,-3.438c0.14,-0.172 0.217,-0.387 0.217,-0.608v-18.112c0,-0.142 -0.05,-0.279 -0.142,-0.388l-1.858,-2.5v-0.5h7.097l7.624,19.183l7.281,-19.183h6.998z"></path></g></g>
</svg>