<svg xmlns="http://www.w3.org/2000/svg" fill="none" viewBox="0 0 100 100"><g clip-path="url(#a)"><path fill="#0ADDF8" d="M0 0h100v100H0z"/><path fill="#000" fill-rule="evenodd" d="M59.65 29.71q1 .404 2.133.403 1.28 0 2.233-.45a3.8 3.8 0 0 0 1.521-1.279c.368-.555.56-1.209.55-1.875a3.03 3.03 0 0 0-.729-2.054q-.712-.844-2.167-1.312L60.88 22.4a1.84 1.84 0 0 1-.825-.488 1.12 1.12 0 0 1-.275-.741 1.12 1.12 0 0 1 .208-.68c.15-.212.358-.376.6-.47a2.3 2.3 0 0 1 .888-.163 2.75 2.75 0 0 1 2.433 1.5l1.858-1.329a4.6 4.6 0 0 0-2.287-1.98 5.3 5.3 0 0 0-2-.374q-1.23.001-2.187.458a3.6 3.6 0 0 0-1.471 1.259 3.4 3.4 0 0 0-.517 1.875q-.001 1.213.73 2.083c.483.575 1.208 1.017 2.166 1.333l2.358.771c.311.083.593.252.813.488.172.195.264.448.258.708a1.12 1.12 0 0 1-.208.683 1.43 1.43 0 0 1-.584.434 2.2 2.2 0 0 1-.891.166 3.03 3.03 0 0 1-1.78-.57 3.7 3.7 0 0 1-1.124-1.305l-1.959 1.213a4.83 4.83 0 0 0 2.567 2.437m-40.7-.284q1.111.6 2.541.6 1.42 0 2.534-.6a4.48 4.48 0 0 0 2.396-4.013V17.78h-2.509v7.475c.007.451-.104.896-.32 1.292a2.36 2.36 0 0 1-2.105 1.212 2.41 2.41 0 0 1-2.116-1.208 2.7 2.7 0 0 1-.309-1.296V17.78h-2.508v7.638c0 .887.208 1.679.633 2.375a4.54 4.54 0 0 0 1.763 1.637zm19.854 27.042q1.118.6 2.542.6 1.419-.001 2.537-.596a4.48 4.48 0 0 0 2.392-4.013v-7.633H43.77v7.47c.004.452-.108.897-.325 1.292a2.36 2.36 0 0 1-2.104 1.213 2.387 2.387 0 0 1-2.425-2.508v-7.459h-2.5v7.634q-.001 1.325.629 2.375a4.64 4.64 0 0 0 1.762 1.637zm-17.764 27.56a5.3 5.3 0 0 1-2.541-.596 4.6 4.6 0 0 1-1.759-1.633 4.53 4.53 0 0 1-.633-2.375v-7.638h2.508v7.471a2.38 2.38 0 0 0 2.425 2.508 2.35 2.35 0 0 0 2.105-1.212c.217-.395.33-.84.325-1.292v-7.475h2.504v7.634a4.44 4.44 0 0 1-2.392 4.012 5.3 5.3 0 0 1-2.541.596M36.558 17.78v12.054h2.504V22.51l5.417 7.321h1.942V17.78h-2.504v7.163l-5.434-7.163zm-.27 54.18v11.87h2.508v-3.833h1.766l2.092 3.833h2.817l-2.392-4.267a3.55 3.55 0 0 0 1.52-1.291c.376-.584.568-1.463.568-2.284a3.85 3.85 0 0 0-.55-2.116c-.367-.575-.875-1.184-1.521-1.475a5.2 5.2 0 0 0-2.2-.438h-4.609m4.624 5.678h-2.116v-3.316h2.116c.355 0 .667.07.921.208.259.142.459.333.6.583q.225.375.225.875a1.62 1.62 0 0 1-.825 1.438 1.9 1.9 0 0 1-.916.208zm-24.2-20.754v-11.87h4.609c.833 0 1.562.145 2.2.437.645.292 1.154.9 1.52 1.475.385.637.576 1.373.55 2.117 0 .82-.191 1.7-.566 2.283a3.55 3.55 0 0 1-1.521 1.292l2.392 4.266h-2.817l-2.092-3.829h-1.77v3.83zm2.505-6.191h2.12q.533-.001.921-.209a1.61 1.61 0 0 0 .825-1.441q0-.5-.225-.875a1.5 1.5 0 0 0-.6-.584 1.9 1.9 0 0 0-.92-.208h-2.122zm40.512 6a6.2 6.2 0 0 0 2.408.466c.875 0 1.654-.146 2.346-.437a5.4 5.4 0 0 0 2.996-2.959l-2.217-1.07a2.84 2.84 0 0 1-1.083 1.366 3.65 3.65 0 0 1-2.042.654c-.708 0-1.333-.075-1.875-.412A3.43 3.43 0 0 1 59 52.913a4.25 4.25 0 0 1-.434-1.983c0-.787.142-1.38.434-1.962a3.43 3.43 0 0 1 1.262-1.392q.813-.5 1.875-.5c.734 0 1.355.104 1.863.492.516.375.966.945 1.17 1.529l2.217-1.067a4.8 4.8 0 0 0-1.125-1.708 5.4 5.4 0 0 0-1.779-1.167 6 6 0 0 0-2.346-.433c-.875 0-1.679.154-2.425.466a5.7 5.7 0 0 0-1.925 1.296 5.7 5.7 0 0 0-1.275 1.971 6.6 6.6 0 0 0-.458 2.475 6.15 6.15 0 0 0 1.75 4.446q.825.843 1.925 1.312zm-1.7 27.137V71.78h7.475v2.454h-4.967v2.375h3.925v2.363h-3.925v2.404h4.967v2.454zm16.892-12.05v12.05h3.929c1.308 0 2.437-.258 3.4-.78a5.6 5.6 0 0 0 2.229-2.132q.793-1.376.792-3.125 0-1.744-.792-3.1a5.6 5.6 0 0 0-2.23-2.138 7.05 7.05 0 0 0-3.4-.775zm3.995 9.688H77.43v-7.234h1.487c.788 0 1.467.067 2.038.375.57.317 1.013.667 1.325 1.238a3.73 3.73 0 0 1 .487 1.95 3.8 3.8 0 0 1-.487 1.946c-.309.539-.77.975-1.325 1.254q-.855.469-2.042.47zm-.391-51.28v-9.77h-3.417v-2.363h9.383v2.363h-3.458v9.775zm.275 17.1v9.775h2.504v-9.775h3.458v-2.362h-9.379v2.362z" clip-rule="evenodd"/></g><defs><clipPath id="a"><path fill="#fff" d="M0 0h100v100H0z"/></clipPath></defs></svg>